#!OML:ASF H:\Dans Jumps\Project 1\Capture day 1\Session 1\subject.ASF
:FULLY-SPECIFIED
:DEGREES
472
root 0.681206 16.5206 4.43879 -8.71189 2.266 -2.62654
lowerback 0.752143 1.00644 -0.0239382
upperback 2.55528 1.30485 2.32324
thorax 2.14451 0.627394 2.41317
lowerneck -7.57494 -1.14161 -1.28238
upperneck 38.3351 -2.21169 2.32833
head 14.5006 -0.796516 0.892621
rclavicle 2.74074e-014 6.55989e-015
rhumerus -22.0465 -8.31505 -83.164
rradius 34.401
rwrist 28.4672
rhand -23.7289 -24.5504
rfingers 7.12502
rthumb 2.73921 -54.5126
lclavicle 2.74074e-014 6.55989e-015
lhumerus -26.8858 -6.39588 86.2504
lradius 34.6068
lwrist 29.058
lhand -24.0484 -9.28787
lfingers 7.12502
lthumb 2.43058 20.678
rfemur -17.4211 -4.09503 19.5229
rtibia 46.4522
rfoot -17.3046 -0.442372
rtoes 3.93811
lfemur -17.6514 5.40294 -16.7548
ltibia 46.7478
lfoot -14.4967 8.11077
ltoes -6.95183
473
root 0.694134 16.6117 4.50983 -8.25191 2.09405 -2.58399
lowerback 0.317298 1.02416 0.0119639
upperback 2.5368 1.32407 2.25776
thorax 2.37141 0.636976 2.33487
lowerneck -7.48979 -1.11703 -1.24259
upperneck 38.344 -2.22836 2.4414
head 14.4872 -0.784821 0.930208
rclavicle 5.04416e-015 -2.34566e-014
rhumerus -22.5668 -8.27354 -83.325
rradius 34.7277
rwrist 28.2922
rhand -23.8252 -24.3809
rfingers 7.12502
rthumb 2.64622 -54.3443
lclavicle 5.04416e-015 -2.34566e-014
lhumerus -27.782 -6.51746 86.8062
lradius 34.4436
lwrist 27.4992
lhand -24.215 -9.19585
lfingers 7.12502
lthumb 2.26969 20.7718
rfemur -16.9007 -3.81758 19.5351
rtibia 45.0467
rfoot -16.8706 -0.524022
rtoes 4.73443
lfemur -17.147 5.23438 -16.8702
ltibia 45.4554
lfoot -13.9758 8.19709
ltoes -6.25978
474
root 0.706541 16.7047 4.57581 -7.80609 1.95137 -2.55116
lowerback -0.0635038 1.03425 0.049316
upperback 2.53422 1.33339 2.19408
thorax 2.58495 0.64174 2.25685
lowerneck -7.40258 -1.09338 -1.19393
upperneck 38.266 -2.2369 2.52985
head 14.4308 -0.772264 0.955994
rclavicle -6.08778e-015 -1.94809e-014
rhumerus -23.1033 -8.37422 -83.4411
rradius 35.0597
rwrist 28.0721
rhand -23.9133 -24.2414
rfingers 7.12502
rthumb 2.56106 -54.2058
lclavicle -6.08778e-015 -1.94809e-014
lhumerus -28.6577 -6.54052 87.3219
lradius 34.2946
lwrist 26.4425
lhand -24.46 -9.11621
lfingers 7.12502
lthumb 2.0331 20.8539
rfemur -16.3236 -3.53905 19.5535
rtibia 43.5243
rfoot -16.3723 -0.635387
rtoes 5.62409
lfemur -16.6309 5.08254 -16.982
ltibia 44.1054
lfoot -13.3926 8.2317
ltoes -5.51782
475
root 0.71837 16.7978 4.6371 -7.35685 1.83071 -2.53814
lowerback -0.403654 1.04022 0.0962238
upperback 2.53419 1.33733 2.13649
thorax 2.77871 0.644178 2.17892
lowerneck -7.32098 -1.07502 -1.14153
upperneck 38.13 -2.24425 2.59636
head 14.3477 -0.761979 0.971304
rclavicle -8.22472e-015 -6.55989e-015
rhumerus -23.6489 -8.60934 -83.5017
rradius 35.3655
rwrist 27.8594
rhand -23.9657 -24.09
rfingers 7.12502
rthumb 2.51049 -54.0549
lclavicle -8.22472e-015 -6.55989e-015
lhumerus -29.5056 -6.51075 87.8063
lradius 34.1593
lwrist 26.0463
lhand -24.6893 -9.02803
lfingers 7.12502
lthumb 1.81162 20.944
rfemur -15.7177 -3.25758 19.5898
rtibia 41.9057
rfoot -15.8265 -0.76885
rtoes 6.59089
lfemur -16.1314 4.95911 -17.0751
ltibia 42.7227
lfoot -12.7704 8.2158
ltoes -4.74383
476
root 0.729482 16.8901 4.69396 -6.8869 1.72869 -2.53499
lowerback -0.718122 1.0444 0.137867
upperback 2.52629 1.33919 2.08489
thorax 2.94988 0.645652 2.10946
lowerneck -7.24884 -1.06128 -1.08071
upperneck 37.9527 -2.24902 2.63619
head 14.2468 -0.753141 0.9738
rclavicle 4.08751e-015 -3.18055e-015
rhumerus -24.1978 -8.92708 -83.5085
rradius 35.6319
rwrist 27.6297
rhand -23.992 -23.908
rfingers 7.12502
rthumb 2.48506 -53.8732
lclavicle 4.08751e-015 -3.18055e-015
lhumerus -30.3203 -6.46492 88.2672
lradius 34.0289
lwrist 26.3448
lhand -24.8323 -8.97369
lfingers 7.12502
lthumb 1.67353 20.9995
rfemur -15.1102 -2.97305 19.6326
rtibia 40.2109
rfoot -15.2474 -0.914214
rtoes 7.60186
lfemur -15.6698 4.86477 -17.1575
ltibia 41.3216
lfoot -12.1158 8.15442
ltoes -4.01965
477
root 0.739769 16.9809 4.74672 -6.38047 1.64234 -2.53581
lowerback -1.01576 1.04685 0.167517
upperback 2.49798 1.3394 2.03687
thorax 3.09031 0.646293 2.04968
lowerneck -7.19614 -1.05202 -1.02812
upperneck 37.7629 -2.25319 2.66314
head 14.1449 -0.74691 0.972289
rclavicle 2.76124e-014 3.45885e-014
rhumerus -24.749 -9.26883 -83.4735
rradius 35.8511
rwrist 27.3728
rhand -23.971 -23.7492
rfingers 7.12502
rthumb 2.50537 -53.7142
lclavicle 2.76124e-014 3.45885e-014
lhumerus -31.1096 -6.42633 88.7034
lradius 33.8986
lwrist 27.2198
lhand -24.8402 -8.9521
lfingers 7.12502
lthumb 1.66594 21.0211
rfemur -14.5255 -2.68353 19.6757
rtibia 38.46
rfoot -14.6444 -1.06911
rtoes 8.61007
lfemur -15.266 4.80031 -17.232
ltibia 39.9133
lfoot -11.4597 8.04139
ltoes -3.27451
478
root 0.749051 17.0693 4.79587 -5.8254 1.56898 -2.53964
lowerback -1.31054 1.04682 0.183601
upperback 2.44311 1.33705 1.99123
thorax 3.2015 0.645589 1.99936
lowerneck -7.16981 -1.04651 -0.991294
upperneck 37.5791 -2.25808 2.68651
head 14.0526 -0.743511 0.972005
rclavicle -5.65915e-015 -1.21259e-014
rhumerus -25.2842 -9.59443 -83.4089
rradius 36.0032
rwrist 27.1149
rhand -23.9216 -23.6103
rfingers 7.12502
rthumb 2.55311 -53.5748
lclavicle -5.65915e-015 -1.21259e-014
lhumerus -31.8834 -6.41272 89.1126
lradius 33.7633
lwrist 28.456
lhand -24.6983 -8.96426
lfingers 7.12502
lthumb 1.80291 21.0079
rfemur -13.9887 -2.39919 19.7183
rtibia 36.6763
rfoot -14.0257 -1.22685
rtoes 9.56032
lfemur -14.9334 4.76178 -17.2964
ltibia 38.502
lfoot -10.8211 7.87714
ltoes -2.46535
479
root 0.757272 17.1544 4.84213 -5.21988 1.50091 -2.55356
lowerback -1.61238 1.04388 0.1954
upperback 2.36118 1.33123 1.94892
thorax 3.28871 0.643233 1.95443
lowerneck -7.17521 -1.04061 -0.97114
upperneck 37.4155 -2.25792 2.70651
head 13.9773 -0.740353 0.974144
rclavicle 1.7813e-014 -1.98785e-016
rhumerus -25.8013 -9.86757 -83.3272
rradius 36.0918
rwrist 26.8957
rhand -23.8341 -23.5059
rfingers 7.12502
rthumb 2.63759 -53.4694
lclavicle 1.7813e-014 -1.98785e-016
lhumerus -32.6514 -6.43315 89.4944
lradius 33.6148
lwrist 29.7824
lhand -24.4229 -8.9767
lfingers 7.12502
lthumb 2.06891 20.993
rfemur -13.5131 -2.12285 19.7699
rtibia 34.8839
rfoot -13.4039 -1.38663
rtoes 10.4113
lfemur -14.6731 4.7499 -17.3405
ltibia 37.0929
lfoot -10.2116 7.67367
ltoes -1.64401
480
root 0.764619 17.2355 4.88599 -4.56714 1.44779 -2.56766
lowerback -1.9222 1.03532 0.199233
upperback 2.25125 1.31861 1.90399
thorax 3.3516 0.637539 1.91062
lowerneck -7.19721 -1.03396 -0.965006
upperneck 37.2661 -2.25228 2.72221
head 13.9126 -0.73711 0.977889
rclavicle 1.28154e-014 2.44505e-014
rhumerus -26.3157 -10.0547 -83.24
rradius 36.1465
rwrist 26.7468
rhand -23.7386 -23.428
rfingers 7.12502
rthumb 2.72981 -53.3902
lclavicle 1.28154e-014 2.44505e-014
lhumerus -33.4243 -6.51573 89.8593
lradius 33.4413
lwrist 30.9428
lhand -24.084 -8.92555
lfingers 7.12502
lthumb 2.39619 21.0407
rfemur -13.1067 -1.88126 19.816
rtibia 33.1134
rfoot -12.7985 -1.53748
rtoes 11.168
lfemur -14.4808 4.75235 -17.3777
ltibia 35.6859
lfoot -9.64488 7.4399
ltoes -0.790922
481
root 0.77125 17.3109 4.92792 -3.88235 1.4077 -2.59869
lowerback -2.23789 1.02035 0.217051
upperback 2.12249 1.29713 1.86013
thorax 3.39888 0.62789 1.85937
lowerneck -7.24007 -1.02657 -0.966756
upperneck 37.131 -2.24074 2.72826
head 13.8593 -0.733388 0.980021
rclavicle 1.37922e-014 3.77691e-015
rhumerus -26.8136 -10.1585 -83.1543
rradius 36.1611
rwrist 26.7052
rhand -23.6475 -23.3456
rfingers 7.12502
rthumb 2.81776 -53.3067
lclavicle 1.37922e-014 3.77691e-015
lhumerus -34.1979 -6.68885 90.2231
lradius 33.2311
lwrist 31.7435
lhand -23.7521 -8.79091
lfingers 7.12502
lthumb 2.71681 21.1715
rfemur -12.7659 -1.68843 19.8749
rtibia 31.3934
rfoot -12.2309 -1.67338
rtoes 11.8335
lfemur -14.3409 4.76386 -17.3879
ltibia 34.2853
lfoot -9.13641 7.17971
ltoes 0.144473
